<?xml version="1.0" encoding="utf-8"?>
<!-- Generator: Adobe Illustrator 25.4.1, SVG Export Plug-In . SVG Version: 6.00 Build 0)  -->
<svg version="1.1" id="Layer_1" xmlns="http://www.w3.org/2000/svg" xmlns:xlink="http://www.w3.org/1999/xlink" x="0px" y="0px"
	 viewBox="0 0 511.9 511.9" style="enable-background:new 0 0 511.9 511.9;" xml:space="preserve">
<style type="text/css">
	.st0{fill:#2B4EFF;stroke:#2B4EFF;stroke-width:2;stroke-miterlimit:10;}
</style>
<g transform="translate(-1)">
	<g>
		<path class="st0" d="M450,291c-4,2.5-5.3,7.7-2.8,11.7c49.4,80.9,62.4,148.8,33.9,177.3c-33.7,33.7-118.6,8.4-209.4-55.2
			c27.4-20.8,55.1-44.9,82.2-72c132.4-132.4,193.6-278.7,139.3-333C458-15.4,383.2-3.2,293,52.4c-4,2.5-5.3,7.7-2.8,11.7
			s7.7,5.3,11.7,2.8C383.7,16.5,452.3,3,481.1,31.8c46,46-17.8,187.4-139.3,308.9c-27.7,27.7-56.4,52.4-84.8,73.4
			c-28.4-21.1-57.1-45.8-84.8-73.4C50.7,219.3-13.1,77.8,32.9,31.9c46-46,187.4,17.8,308.9,139.3c9.4,9.4,33.1,33.5,49.3,50.7h-31.7
			c-4.7,0-8.5,3.8-8.5,8.5s3.8,8.5,8.5,8.5h51.2h0.1c0.2,0,0.3,0,0.5,0c0.1,0,0.2,0,0.3,0c0.2,0,0.3,0,0.5-0.1c0.1,0,0.2,0,0.4-0.1
			c0.1,0,0.3-0.1,0.4-0.1s0.3-0.1,0.4-0.1s0.3-0.1,0.4-0.1s0.3-0.1,0.4-0.1c0.1-0.1,0.2-0.1,0.4-0.2c0.1-0.1,0.3-0.1,0.4-0.2
			c0.1-0.1,0.2-0.1,0.3-0.2c0.1-0.1,0.2-0.2,0.4-0.2c0.1-0.1,0.2-0.2,0.3-0.2c0.1-0.1,0.2-0.2,0.4-0.3c0,0,0.1,0,0.1-0.1
			c0.1-0.1,0.1-0.1,0.2-0.2c0.1-0.1,0.2-0.2,0.3-0.3c0.1-0.1,0.2-0.2,0.3-0.3c0.1-0.1,0.2-0.2,0.3-0.3c0.1-0.1,0.2-0.2,0.2-0.3
			c0.1-0.1,0.2-0.2,0.2-0.4c0.1-0.1,0.1-0.2,0.2-0.3s0.2-0.3,0.2-0.4c0-0.1,0.1-0.2,0.1-0.3c0.1-0.2,0.1-0.3,0.2-0.5
			c0-0.1,0.1-0.2,0.1-0.3c0.1-0.2,0.1-0.4,0.2-0.5c0-0.1,0-0.2,0.1-0.2c0-0.2,0.1-0.4,0.1-0.6c0-0.1,0-0.2,0-0.2
			c0-0.2,0.1-0.4,0.1-0.6c0-0.1,0-0.2,0-0.3s0-0.3,0-0.4v-51.2c0-4.7-3.8-8.5-8.5-8.5s-8.5,3.8-8.5,8.5v29.4
			c-16.4-17.3-39.1-40.4-48.2-49.5C221.4,26.7,75.1-34.5,20.8,19.8s6.9,200.6,139.3,333c27.1,27.1,54.8,51.2,82.2,72
			C151.5,488.5,66.6,513.7,32.9,480c-27.6-27.6-16.4-92.2,27.8-168.4v21.2c0,4.7,3.8,8.5,8.5,8.5s8.5-3.8,8.5-8.5v-51.2
			c0,0,0,0,0-0.1s0-0.2,0-0.4c0-0.2,0-0.3,0-0.5l0,0c-0.1-1.1-0.5-2.1-1-3.1l0,0c-0.1-0.1-0.1-0.2-0.2-0.3c-0.6-1-1.4-1.9-2.4-2.6
			l-0.1-0.1c0,0,0,0-0.1-0.1s-0.3-0.2-0.4-0.3c-0.1,0-0.1-0.1-0.2-0.1c-0.2-0.1-0.4-0.2-0.5-0.3c-0.1,0-0.1-0.1-0.2-0.1
			c-0.2-0.1-0.4-0.1-0.6-0.2c-0.1,0-0.1,0-0.2-0.1c-0.2-0.1-0.4-0.1-0.6-0.2c-0.1,0-0.1,0-0.2,0c-0.2,0-0.5-0.1-0.7-0.1h-0.1
			c-0.3,0-0.5,0-0.8,0c0,0,0,0-0.1,0l0,0h-0.1H18c-4.7,0-8.5,3.8-8.5,8.5s3.8,8.5,8.5,8.5h35.7c-55.6,90-68.3,166.6-32.9,202
			c13.4,13.4,32.4,19.8,55.4,19.8c47.7,0,112.7-27.4,180.7-76.2c68,48.8,133,76.2,180.7,76.2c23,0,42-6.4,55.4-19.8
			c34.9-34.9,23.1-109-31.4-198.2C459.3,289.9,454,288.6,450,291z"/>
	</g>
</g>
</svg>
