<?xml version="1.0" encoding="utf-8"?>
<!-- Generator: Adobe Illustrator 25.4.1, SVG Export Plug-In . SVG Version: 6.00 Build 0)  -->
<svg version="1.1" id="Capa_1" xmlns="http://www.w3.org/2000/svg" xmlns:xlink="http://www.w3.org/1999/xlink" x="0px" y="0px"
	 viewBox="0 0 421 421" style="enable-background:new 0 0 421 421;" xml:space="preserve">
<style type="text/css">
	.st0{fill:#2B4EFF;}
</style>
<g>
	<g>
		<path class="st0" d="M354.5,144c0-79.5-64.5-144-144-144s-144,64.5-144,144c-20.6,2.6-40,16-40,47.2v75.2c0,35.2,24.6,48,48,48
			h23.2c4.4,0,8-3.6,8-8V151.5c0-4.4-3.6-8-8-8H82.5c0-70.7,57.3-128,128-128s128,57.3,128,128h-15.2c-4.4,0-8,3.6-8,8v154.6
			c0,4.4,3.6,8,8,8h15.2c-2.2,55-28.6,67.8-81.4,70.2V379c0-8.8-7.2-16-16-16h-50.3c-8.8,0-16,7.2-16,16v26c0,8.8,7.2,16,16,16h50.5
			c8.8,0,16-7.2,16-16v-4.6c50.7-2.3,94.6-12.8,97.2-86.6c20.6-2.6,40-16,40-47.2v-75.2C394.5,159.9,375.1,146.6,354.5,144z
			 M89.7,159v139.2H74.1c-11.8,0-32-4.2-32-32V191c0-27.6,19.9-32,32-32H89.7z M241.3,392.9V405h-50.5v-26h50.5V392.9z M378.5,266.4
			c0,27.6-19.9,32-32,32h-15.2V159.5h15.6c11.8,0,32,4.2,32,32L378.5,266.4z"/>
	</g>
</g>
</svg>
