<?xml version="1.0" encoding="utf-8"?>
<!-- Generator: Adobe Illustrator 25.4.1, SVG Export Plug-In . SVG Version: 6.00 Build 0)  -->
<svg version="1.1" id="Layer_1" xmlns="http://www.w3.org/2000/svg" xmlns:xlink="http://www.w3.org/1999/xlink" x="0px" y="0px"
	 viewBox="0 0 512 512" style="enable-background:new 0 0 512 512;" xml:space="preserve">
<style type="text/css">
	.st0{fill:#2B4EFF;stroke:#2B4EFF;stroke-width:0.2;stroke-miterlimit:10;}
</style>
<g>
	<path class="st0" d="M511.9,256c-0.4-3-2.6-5.4-5.5-6.2c-0.5-0.1-45.1-12.2-103.3-35.3c62.5-27.8,104.6-52.9,105.2-53.3
		c2.6-1.5,4-4.5,3.6-7.5s-2.6-5.4-5.5-6.2C505,147.1,369.1,110.2,260,41.1c-2.5-1.6-5.6-1.6-8,0c-44.2,28-97.5,53.9-158.5,77.1
		c-3.9,1.5-5.8,5.8-4.3,9.7s5.8,5.8,9.7,4.3c60.1-22.8,112.9-48.4,157.2-75.9c87.1,54.2,189.5,88.5,229.4,100.7
		c-35.2,19.4-126.9,67-229.4,95.2C153.5,224,61.8,176.5,26.6,157.1c9.7-2.9,23.1-7.2,39.1-12.8c9.3-3.6,4.6-17.1-4.9-14.2
		c-33,11.4-55.1,17.4-55.3,17.4c-2.9,0.8-5.1,3.2-5.5,6.2s1,5.9,3.6,7.5c0.7,0.4,42.8,25.5,105.2,53.3C50.7,237.6,6,249.7,5.6,249.8
		c-2.9,0.8-5.1,3.2-5.5,6.2s1,5.9,3.6,7.5c0.7,0.4,42.8,25.5,105.2,53.3C50.7,339.9,6,352,5.6,352.1c-2.9,0.8-5.1,3.2-5.5,6.2
		s1,5.9,3.6,7.5c0.9,0.6,23,13.7,59.3,31.7c3.6,1.8,8.2,0.4,10.1-3.4c1.8-3.7,0.3-8.2-3.4-10.1c-18.2-9-32.9-16.9-43-22.5
		c20.8-6.3,58.3-18.6,101.6-36.4c37.4,15.9,80.6,31.9,125.9,44.3c1.3,0.4,2.6,0.4,3.9,0c8.6-2.3,17.3-4.9,26.1-7.6
		c9.4-3.2,5.2-16.9-4.4-14.3c-7.9,2.4-15.9,4.7-23.7,6.9c-102.5-28.2-194.2-75.7-229.4-95.1c20.8-6.3,58.3-18.6,101.6-36.4
		c37.4,15.9,80.6,31.9,125.9,44.3c1.3,0.4,2.6,0.4,3.9,0c45.2-12.3,88.5-28.4,125.9-44.3c43.2,17.8,80.8,30.1,101.6,36.4
		c-28.6,15.8-94.5,50.2-173.1,77.5c-9.3,3.6-4.5,17.1,4.9,14.2c23.5-8.2,46-17,66.6-25.8c43.2,17.8,80.8,30,101.5,36.4
		c-19.3,10.7-55.7,29.9-101.3,49.5c-9,4.3-3.3,17.4,5.9,13.8c69.4-29.9,117.8-58.8,118.3-59.1c2.6-1.5,4-4.5,3.6-7.5
		s-2.6-5.4-5.5-6.2c-0.5-0.1-45.1-12.2-103.3-35.3c62.4-27.8,104.6-53,105.2-53.3C510.9,262,512.3,259,511.9,256L511.9,256z"/>
	<path class="st0" d="M353.7,423.7c-33.6,13.3-66.4,24.4-97.7,33c-50.3-13.8-103.4-33.7-158-59c-3.8-1.7-8.2-0.1-10,3.6
		s-0.1,8.2,3.6,10c56.1,26,110.7,46.3,162.3,60.4c1.3,0.4,2.6,0.4,3.9,0c32.4-8.8,66.5-20.3,101.3-34.1c3.9-1.5,5.7-5.9,4.2-9.7
		C361.9,424,357.6,422.2,353.7,423.7L353.7,423.7z"/>
	<path class="st0" d="M256,95.6c4.1,0,7.5-3.4,7.5-7.5c-0.3-9.9-14.7-9.9-15,0C248.5,92.2,251.9,95.6,256,95.6z"/>
	<path class="st0" d="M256,140.7c4.1,0,7.5-3.4,7.5-7.5c-0.3-9.9-14.7-9.9-15,0C248.5,137.3,251.9,140.7,256,140.7z"/>
	<path class="st0" d="M256,185.8c4.1,0,7.5-3.4,7.5-7.5c-0.3-9.9-14.7-9.9-15,0C248.5,182.4,251.9,185.8,256,185.8z"/>
	<path class="st0" d="M256,230.9c4.1,0,7.5-3.4,7.5-7.5c-0.3-9.9-14.7-9.9-15,0C248.5,227.5,251.9,230.9,256,230.9z"/>
	<path class="st0" d="M312.3,211.9c4.1,0,7.5-3.4,7.5-7.5c-0.3-9.9-14.7-9.9-15,0C304.8,208.5,308.2,211.9,312.3,211.9z"/>
	<path class="st0" d="M312.3,167c4.1,0,7.5-3.4,7.5-7.5c-0.3-9.9-14.7-9.9-15,0C304.8,163.7,308.2,167,312.3,167z"/>
	<path class="st0" d="M312.3,126.5c4.1,0,7.5-3.4,7.5-7.5c-0.3-9.9-14.7-9.9-15,0C304.8,123.1,308.2,126.5,312.3,126.5z"/>
	<path class="st0" d="M365.7,146.6c4.1,0,7.5-3.4,7.5-7.5c-0.3-9.9-14.7-9.9-15,0C358.2,143.3,361.6,146.6,365.7,146.6z"/>
	<path class="st0" d="M365.7,191.7c4.1,0,7.5-3.4,7.5-7.5c-0.3-9.9-14.7-9.9-15,0C358.2,188.3,361.6,191.7,365.7,191.7z"/>
	<path class="st0" d="M427.8,161.7c0-4.1-3.4-7.5-7.5-7.5c-9.9,0.3-9.9,14.7,0,15C424.4,169.2,427.8,165.8,427.8,161.7z"/>
	<path class="st0" d="M199.7,211.9c4.1,0,7.5-3.4,7.5-7.5c-0.3-9.9-14.7-9.9-15,0C192.2,208.5,195.5,211.9,199.7,211.9z"/>
	<path class="st0" d="M199.7,167c4.1,0,7.5-3.4,7.5-7.5c-0.3-9.9-14.7-9.9-15,0C192.2,163.7,195.5,167,199.7,167z"/>
	<path class="st0" d="M199.7,126.5c4.1,0,7.5-3.4,7.5-7.5c-0.3-9.9-14.7-9.9-15,0C192.2,123.1,195.5,126.5,199.7,126.5z"/>
	<path class="st0" d="M146.3,146.6c4.1,0,7.5-3.4,7.5-7.5c-0.3-9.9-14.7-9.9-15,0C138.8,143.3,142.1,146.6,146.3,146.6z"/>
	<path class="st0" d="M146.3,191.7c4.1,0,7.5-3.4,7.5-7.5c-0.3-9.9-14.7-9.9-15,0C138.8,188.3,142.1,191.7,146.3,191.7z"/>
	<path class="st0" d="M91.7,169.2c4.1,0,7.5-3.4,7.5-7.5c-0.3-9.9-14.7-9.9-15,0C84.2,165.8,87.6,169.2,91.7,169.2z"/>
</g>
</svg>
