<?xml version="1.0" encoding="utf-8"?>
<!-- Generator: Adobe Illustrator 25.4.1, SVG Export Plug-In . SVG Version: 6.00 Build 0)  -->
<svg version="1.1" id="Capa_1" xmlns="http://www.w3.org/2000/svg" xmlns:xlink="http://www.w3.org/1999/xlink" x="0px" y="0px"
	 viewBox="0 0 316.7 316.7" style="enable-background:new 0 0 316.7 316.7;" xml:space="preserve">
<style type="text/css">
	.st0{fill:#2B4EFF;}
</style>
<g>
	<path class="st0" d="M257.6,183.1c-11.1-12.8-26.4-21.2-43.2-23.6l-38.5-6V86.3c0-16-13-28.9-28.9-28.9h-0.4
		c-16,0-28.9,13-28.9,28.9v107.9l-39.8-17.1c-8-3.4-17.1-2.6-24.4,2.2s-11.6,12.8-11.6,21.5v0.4c0,7.4,3.2,14.4,8.7,19.3l67.1,59.7
		v29c0,4.1,3.4,7.5,7.5,7.5c4.1,0,7.5-3.4,7.5-7.5v-32.4c0-2.1-0.9-4.2-2.5-5.6l-69.6-61.9c-2.3-2-3.6-5-3.6-8.1v-0.4
		c0-3.7,1.8-7,4.9-9c3.1-2,6.8-2.4,10.2-0.9l50.2,21.5c0.5,0.2,0.9,0.4,1.5,0.5c0.8,0.2,1.5,0.2,2.2,0.1c0.1,0,0.2,0,0.2,0
		c0.2,0,0.3,0,0.5-0.1c0.1,0,0.3-0.1,0.4-0.1s0.2,0,0.3-0.1c0.1,0,0.3-0.1,0.4-0.2c0.1,0,0.2-0.1,0.2-0.1c0.1-0.1,0.3-0.1,0.4-0.2
		c0.1,0,0.2-0.1,0.2-0.1c0.1-0.1,0.2-0.1,0.4-0.2c0.1-0.1,0.2-0.1,0.3-0.2c0.1-0.1,0.2-0.1,0.3-0.2c0.1-0.1,0.2-0.1,0.3-0.2
		c0.1-0.1,0.2-0.1,0.2-0.2c0.1-0.1,0.2-0.2,0.3-0.3s0.1-0.1,0.2-0.2c0.1-0.1,0.2-0.2,0.3-0.3s0.1-0.2,0.2-0.3
		c0.1-0.1,0.2-0.2,0.2-0.3c0.1-0.1,0.2-0.3,0.3-0.4c0-0.1,0.1-0.1,0.1-0.2c0.4-0.7,0.6-1.4,0.8-2.1c0.1-0.5,0.2-1,0.2-1.5V86.3
		c0-7.7,6.2-13.9,13.9-13.9h0.4c7.7,0,13.9,6.2,13.9,13.9v72c0,0.3,0,0.6,0,0.8c-0.4,3.9,2.3,7.5,6.3,8.2l44.9,7h0.1
		c27.1,3.9,47.6,27.4,47.6,54.9v0.8c0,12.7-3.1,25.3-9,36.6l-20.3,39.1c-1.9,3.7-0.5,8.2,3.2,10.1c1.1,0.6,2.3,0.9,3.5,0.9
		c2.7,0,5.3-1.5,6.7-4l20.3-39.1c7-13.4,10.7-28.4,10.7-43.5v-0.8C274.8,212.3,268.7,195.9,257.6,183.1z"/>
	<path class="st0" d="M146.7,37.8c4.1,0,7.5-3.4,7.5-7.5V7.5c0-4.1-3.4-7.5-7.5-7.5s-7.5,3.4-7.5,7.5v22.8
		C139.2,34.4,142.6,37.8,146.7,37.8z"/>
	<path class="st0" d="M193.2,98.9c0,4.1,3.4,7.5,7.5,7.5h22.8c4.1,0,7.5-3.4,7.5-7.5s-3.4-7.5-7.5-7.5h-22.8
		C196.5,91.4,193.2,94.8,193.2,98.9z"/>
	<path class="st0" d="M194.7,56.5c1.9,0,3.8-0.7,5.3-2.2l16.1-16.1c2.9-2.9,2.9-7.7,0-10.6s-7.7-2.9-10.6,0l-16.1,16.1
		c-2.9,2.9-2.9,7.7,0,10.6C190.9,55.7,192.8,56.5,194.7,56.5z"/>
	<path class="st0" d="M87.5,54.3c1.5,1.5,3.4,2.2,5.3,2.2s3.8-0.7,5.3-2.2c2.9-2.9,2.9-7.7,0-10.6L82,27.5c-2.9-2.9-7.7-2.9-10.6,0
		s-2.9,7.7,0,10.6L87.5,54.3z"/>
	<path class="st0" d="M64.4,106.4h22.8c4.1,0,7.5-3.4,7.5-7.5s-3.4-7.5-7.5-7.5H64.4c-4.1,0-7.5,3.4-7.5,7.5S60.3,106.4,64.4,106.4z
		"/>
</g>
</svg>
