<?xml version="1.0" encoding="windows-1252"?>
<!-- Generator: Adobe Illustrator 19.0.0, SVG Export Plug-In . SVG Version: 6.00 Build 0)  -->
<svg version="1.1" id="Capa_1" xmlns="http://www.w3.org/2000/svg" xmlns:xlink="http://www.w3.org/1999/xlink" x="0px" y="0px" viewBox="0 0 512 512" style="enable-background:new 0 0 512 512;" xml:space="preserve">
<path style="fill:#EE5253;" d="M288.84,432.74c0.358-0.065,0.71-0.16,1.057-0.279c0.06-0.02,0.119-0.04,0.176-0.062  c0.359-0.131,0.71-0.287,1.049-0.473c0.012-0.006,0.023-0.01,0.035-0.016c0.054-0.029,0.102-0.065,0.155-0.097  c0.146-0.085,0.291-0.174,0.433-0.27c0.098-0.067,0.19-0.139,0.283-0.208c0.101-0.077,0.205-0.154,0.305-0.237  c0.121-0.099,0.235-0.208,0.351-0.317c0.052-0.048,0.106-0.091,0.157-0.141c0.038-0.04,0.072-0.075,0.109-0.113  c0.008-0.008,0.016-0.016,0.022-0.021c109.958-110.02,95.95-170.777,95.3-173.31c-1.044-4.063-5.189-6.517-9.256-5.473  c-4.067,1.043-6.518,5.188-5.473,9.255c0.03,0.121-115.277,96.07-115.277,96.07c-2.035-3.671-6.667-4.994-10.338-2.954  c-3.672,2.04-4.994,6.669-2.954,10.338l35.752,64.362c0.003,0.006,0.008,0.014,0.011,0.02l0.079,0.143  c0.016,0.029,0.039,0.056,0.057,0.085c0.134,0.236,0.283,0.463,0.446,0.687c0.051,0.069,0.099,0.141,0.151,0.206  c0.173,0.222,0.357,0.436,0.556,0.64c0.023,0.021,0.041,0.05,0.063,0.071c0.017,0.016,0.038,0.027,0.055,0.046  c0.245,0.241,0.506,0.457,0.776,0.657c0.066,0.05,0.131,0.101,0.2,0.148c0.293,0.204,0.597,0.388,0.91,0.548  c0.04,0.02,0.08,0.035,0.12,0.056c0.317,0.154,0.643,0.285,0.974,0.392c0.03,0.01,0.06,0.021,0.089,0.031  c0.346,0.106,0.695,0.185,1.05,0.239c0.068,0.012,0.138,0.022,0.206,0.029c0.351,0.048,0.702,0.073,1.054,0.071  c0.054,0,0.106-0.006,0.16-0.008c0.328-0.01,0.657-0.04,0.983-0.093C288.728,432.756,288.783,432.751,288.84,432.74z"/>
<path style="fill:#FF6B6B;" d="M157.908,264.072c2.041-3.671,0.716-8.304-2.954-10.338c0,0,96.031-115.289,96.167-115.258  l-0.098-0.025l3.782-14.728c-2.535-0.652-63.286-14.653-173.305,95.305c-0.007,0.008-0.015,0.016-0.021,0.021  c-0.039,0.038-0.075,0.073-0.112,0.111c-0.052,0.052-0.093,0.105-0.143,0.158c-0.108,0.113-0.216,0.228-0.317,0.351  c-0.083,0.099-0.159,0.202-0.236,0.305c-0.069,0.093-0.142,0.187-0.208,0.283c-0.096,0.141-0.184,0.285-0.27,0.432  c-0.03,0.054-0.067,0.103-0.097,0.156c-0.007,0.012-0.01,0.023-0.017,0.035c-0.187,0.339-0.341,0.687-0.471,1.043  c-0.022,0.062-0.044,0.123-0.064,0.185c-0.117,0.347-0.213,0.695-0.277,1.051c-0.012,0.06-0.017,0.119-0.026,0.18  c-0.051,0.32-0.082,0.646-0.09,0.97c-0.003,0.056-0.009,0.113-0.01,0.168c-0.002,0.353,0.024,0.701,0.071,1.049  c0.009,0.071,0.019,0.141,0.029,0.212c0.057,0.355,0.134,0.703,0.24,1.047c0.009,0.031,0.021,0.062,0.03,0.091  c0.107,0.333,0.239,0.655,0.392,0.972c0.02,0.042,0.037,0.081,0.058,0.121c0.158,0.315,0.343,0.615,0.547,0.91  c0.049,0.069,0.098,0.135,0.148,0.202c0.202,0.268,0.418,0.528,0.659,0.775c0.016,0.018,0.027,0.035,0.045,0.054  c0.021,0.021,0.049,0.04,0.071,0.062c0.205,0.2,0.419,0.384,0.639,0.557c0.067,0.052,0.137,0.101,0.207,0.15  c0.223,0.164,0.451,0.313,0.686,0.447c0.03,0.018,0.056,0.04,0.086,0.056l0.142,0.079c0.007,0.004,0.013,0.006,0.02,0.012  l64.357,35.751C151.239,269.065,155.869,267.743,157.908,264.072z"/>
<path style="fill:#E4E8EB;" d="M127.889,305.117c-2.115-2.115-2.794-5.273-1.734-8.071c20.033-52.867,96.667-147.661,141.98-192.975  C340.544,31.662,417.857-2.339,504.49,0.125c4.03,0.115,7.27,3.355,7.384,7.384c2.466,86.632-31.535,163.944-103.946,236.356  c-45.313,45.313-140.105,121.948-192.971,141.981c-2.798,1.059-5.956,0.38-8.071-1.735L127.889,305.117z"/>
<path style="fill:#CAD0D7;" d="M511.873,7.508c-0.114-4.03-3.355-7.269-7.384-7.384c-4.718-0.135-9.403-0.141-14.066-0.058  c-1.431,80.965-35.538,153.82-104.005,222.289c-45.313,45.313-140.106,121.948-192.972,141.979  c-2.797,1.061-5.956,0.382-8.071-1.733l-57.492-57.489c0.002,0,0.003,0.002,0.005,0.004l78.996,78.993  c2.115,2.115,5.273,2.794,8.071,1.735c52.866-20.033,147.658-96.668,192.971-141.981C480.338,171.453,514.339,94.141,511.873,7.508z  "/>
<path style="fill:#576574;" d="M143.113,262.984c-7.294,12.449-13.15,24.015-16.958,34.062c-1.06,2.798-0.381,5.956,1.734,8.071  l78.996,78.993c2.115,2.115,5.273,2.794,8.071,1.735c10.047-3.808,21.612-9.663,34.061-16.958L143.113,262.984z"/>
<path style="fill:#FF6B6B;" d="M5.475,506.529c-6.922-6.922-7.274-18.868-1.078-36.521c4.431-12.625,12.174-28.281,23.01-46.526  c18.659-31.418,42.962-64.293,53.953-75.282c11.009-11.011,25.65-17.075,41.22-17.075s30.211,6.063,41.221,17.075  c22.728,22.728,22.728,59.71,0.001,82.44c-10.995,10.994-43.868,35.296-75.283,53.955c-18.248,10.836-33.9,18.577-46.524,23.011  C24.341,513.801,12.395,513.45,5.475,506.529z"/>
<path style="fill:#EE5253;" d="M163.801,348.199c-3.691-3.691-7.796-6.812-12.201-9.348c12.803,22.275,9.707,51.263-9.307,70.28  c-10.994,10.992-43.868,35.294-75.282,53.953c-18.248,10.837-33.901,18.579-46.525,23.013c-7.966,2.796-14.758,4.246-20.462,4.374  c-0.155,6.937,1.652,12.259,5.45,16.059c6.92,6.92,18.866,7.271,36.52,1.076c12.623-4.433,28.277-12.176,46.524-23.011  c31.415-18.658,64.289-42.961,75.283-53.955C186.529,407.91,186.529,370.927,163.801,348.199z"/>
<g>
	<path style="fill:#222F3E;" d="M178.139,333.863c-2.97-2.97-7.784-2.97-10.753,0l-5.375,5.374l10.753,10.752l5.375-5.374   C181.107,341.644,181.107,336.831,178.139,333.863z"/>
	<path style="fill:#222F3E;" d="M149.462,305.186c-2.969-2.97-7.783-2.97-10.753,0l-5.374,5.374l10.753,10.754l5.374-5.376   C152.432,312.97,152.432,308.157,149.462,305.186z"/>
</g>
<g>
	<path style="fill:#54A0FF;" d="M265.339,246.662L265.339,246.662c-6.703-6.7-10.396-15.613-10.396-25.09   c0-9.479,3.692-18.39,10.395-25.092c6.7-6.7,15.611-10.392,25.089-10.394c9.479,0,18.39,3.691,25.091,10.392   c6.701,6.702,10.394,15.615,10.394,25.092c0.001,9.479-3.691,18.392-10.395,25.092   C301.683,260.497,279.175,260.497,265.339,246.662L265.339,246.662z"/>
	<path style="fill:#54A0FF;" d="M351.371,160.626L351.371,160.626c-13.836-13.834-13.836-36.346,0-50.18   c13.835-13.834,36.347-13.834,50.18,0c6.702,6.702,10.395,15.613,10.396,25.092c0,9.477-3.692,18.39-10.395,25.092   C387.719,174.463,365.207,174.463,351.371,160.626z"/>
</g>
<g>
	<path style="fill:#2E86DE;" d="M411.947,135.537c-0.001-9.479-3.693-18.39-10.396-25.092c-3.838-3.837-8.347-6.608-13.151-8.316   c1.338,3.77,2.037,7.782,2.038,11.9c0,9.477-3.692,18.388-10.394,25.09c-9.988,9.988-24.497,12.762-37,8.327   c1.707,4.816,4.481,9.334,8.328,13.18c13.836,13.837,36.349,13.837,50.181,0.004C408.255,153.927,411.947,145.014,411.947,135.537z   "/>
	<path style="fill:#2E86DE;" d="M325.912,221.57c0-9.477-3.693-18.388-10.395-25.09c-3.838-3.839-8.347-6.61-13.151-8.316   c1.338,3.768,2.037,7.78,2.038,11.898c0,9.479-3.691,18.39-10.394,25.092c-9.988,9.988-24.497,12.76-37.001,8.327   c1.707,4.814,4.481,9.332,8.328,13.18c13.836,13.835,36.348,13.835,50.181,0.002C322.221,239.959,325.912,231.048,325.912,221.57z"/>
</g>
<path style="fill:#FECA57;" d="M50.741,461.26c-5.927-5.927-2.136-15.355,2.353-23.799c3.695-6.947,9.402-15.829,16.962-26.401  c12.901-18.039,28.291-36.836,32.81-41.355c10.871-10.871,28.558-10.871,39.429,0c10.871,10.869,10.871,28.557,0,39.429  c-4.52,4.521-23.319,19.912-41.353,32.81c-10.572,7.56-19.453,13.267-26.402,16.961C66.098,463.396,56.669,467.186,50.741,461.26z"/>
<path style="fill:#FF6B6B;" d="M504.49,0.125c-30.52-0.867-59.877,2.811-88.276,11.079l84.582,84.583  c8.268-28.399,11.946-57.759,11.078-88.278C511.76,3.48,508.52,0.239,504.49,0.125z"/>
<path style="fill:#222F3E;" d="M217.907,384.681c0.561-0.226,1.123-0.461,1.693-0.699c0.244-0.103,0.488-0.206,0.734-0.309  c0.665-0.285,1.334-0.576,2.009-0.873c0.127-0.058,0.25-0.108,0.377-0.166c0.78-0.347,1.567-0.705,2.36-1.072  c0.277-0.127,0.557-0.258,0.834-0.39c0.539-0.251,1.083-0.507,1.629-0.768c0.319-0.154,0.641-0.307,0.961-0.463  c0.555-0.268,1.113-0.542,1.673-0.82c0.287-0.143,0.572-0.279,0.861-0.424c0.774-0.388,1.553-0.782,2.338-1.184  c0.391-0.2,0.786-0.408,1.18-0.612c0.445-0.232,0.893-0.463,1.342-0.701c0.44-0.231,0.881-0.465,1.324-0.703  c0.409-0.218,0.82-0.438,1.231-0.659c0.463-0.249,0.926-0.499,1.394-0.754c0.179-0.097,0.361-0.2,0.542-0.299  c1.11-0.61,2.229-1.234,3.359-1.869c0.308-0.172,0.614-0.347,0.924-0.521c0.568-0.322,1.135-0.648,1.706-0.976  c0.279-0.16,0.56-0.322,0.839-0.485c0.598-0.347,1.196-0.693,1.799-1.045l-21.509-21.508c-12.449,7.292-24.013,13.15-34.061,16.956  c-2.797,1.061-5.956,0.382-8.071-1.733l-57.487-57.485l0,0l78.996,78.993c2.115,2.115,5.273,2.794,8.071,1.735  c0.746-0.283,1.505-0.582,2.268-0.887C217.451,384.867,217.679,384.773,217.907,384.681z"/>
<path style="fill:#EE5253;" d="M490.424,0.067c-0.451,25.502-4.152,50.2-11.137,74.209l21.509,21.51  c0.477-1.635,0.933-3.275,1.379-4.917c0.095-0.353,0.188-0.709,0.283-1.061c1.288-4.816,2.441-9.659,3.467-14.53  c0.125-0.592,0.248-1.184,0.369-1.776c0.299-1.467,0.591-2.936,0.866-4.41c0.106-0.569,0.203-1.143,0.306-1.711  c0.445-2.468,0.857-4.94,1.236-7.421c0.145-0.951,0.292-1.901,0.427-2.853c0.172-1.212,0.337-2.424,0.493-3.64  c0.153-1.19,0.295-2.382,0.434-3.574c0.146-1.247,0.288-2.493,0.417-3.742c0.189-1.834,0.36-3.671,0.513-5.513  c0.077-0.925,0.144-1.853,0.212-2.78c0.111-1.531,0.213-3.062,0.301-4.596c0.046-0.8,0.096-1.598,0.135-2.398  c0.111-2.246,0.199-4.497,0.259-6.756c0.015-0.576,0.02-1.157,0.031-1.735c0.038-1.867,0.06-3.737,0.062-5.612  c0.001-0.689,0.002-1.38-0.001-2.069c-0.012-2.388-0.043-4.782-0.111-7.184c-0.114-4.03-3.355-7.269-7.384-7.384  C499.771-0.01,495.086-0.016,490.424,0.067z"/>
<g>
</g>
<g>
</g>
<g>
</g>
<g>
</g>
<g>
</g>
<g>
</g>
<g>
</g>
<g>
</g>
<g>
</g>
<g>
</g>
<g>
</g>
<g>
</g>
<g>
</g>
<g>
</g>
<g>
</g>
</svg>