<?xml version="1.0" encoding="utf-8"?>
<!-- Generator: Adobe Illustrator 25.4.1, SVG Export Plug-In . SVG Version: 6.00 Build 0)  -->
<svg version="1.1" id="Layer_1" xmlns="http://www.w3.org/2000/svg" xmlns:xlink="http://www.w3.org/1999/xlink" x="0px" y="0px"
	 viewBox="0 0 289.2 291.8" style="enable-background:new 0 0 289.2 291.8;" xml:space="preserve">
<style type="text/css">
	.st0{fill:#2B4EFF;}
</style>
<g>
	<g>
		<path class="st0" d="M144.6,89.6c-31,0-56.2,25.3-56.2,56.3s25.2,56.1,56.2,56.1s56.2-25.2,56.2-56.2S175.6,89.6,144.6,89.6z
			 M144.6,190.1c-24.4,0-44.2-19.8-44.2-44.2s19.8-44.2,44.2-44.2s44.2,19.8,44.2,44.2S169,190.1,144.6,190.1z"/>
	</g>
</g>
<g>
	<g>
		<path class="st0" d="M271.4,118h-13.3c-2.8-11.7-7.4-22.7-13.7-33l9.4-9.4c3.4-3.4,5.2-7.8,5.2-12.6c0-4.7-1.8-9.2-5.2-12.6
			l-14-14c-3.4-3.4-7.8-5.2-12.6-5.2s-9.2,1.8-12.6,5.2l-9.4,9.4c-10.3-6.3-21.3-10.8-33-13.7V18.8c0-9.8-8-17.8-17.8-17.8h-19.8
			c-9.8,0-17.8,8-17.8,17.8v13.3c-11.7,2.8-22.7,7.4-33,13.7l-9.4-9.4c-3.4-3.4-7.8-5.2-12.6-5.2c-4.7,0-9.2,1.8-12.6,5.2l-14,14
			C31.8,53.8,30,58.2,30,63c0,4.7,1.8,9.2,5.2,12.6l9.4,9.4c-6.3,10.3-10.8,21.3-13.7,33H17.8C8,118,0,126,0,135.8v19.8
			c0.1,10,8,17.9,17.8,17.9h13.3c2.8,11.7,7.4,22.7,13.7,33l-9.4,9.4c-3.4,3.4-5.2,7.8-5.2,12.6c0,4.7,1.8,9.2,5.2,12.6l14,14
			c3.4,3.4,7.8,5.2,12.6,5.2c4.7,0,9.2-1.8,12.6-5.2l9.4-9.4c10.3,6.3,21.3,10.8,33,13.7v13.3c0,9.8,8,17.8,17.8,17.8h19.8
			c9.8,0,17.8-8,17.8-17.8v-13.4c11.7-2.8,22.7-7.4,33-13.7l9.4,9.4c3.4,3.4,7.8,5.2,12.6,5.2s9.2-1.8,12.6-5.2l14-14
			c3.4-3.4,5.2-7.8,5.2-12.6c0-4.7-1.8-9.2-5.2-12.6l-9.4-9.4c6.3-10.3,10.8-21.3,13.7-33h13.1c9.8,0,17.8-8,17.8-17.8v-19.8
			C289.2,126,281.2,118,271.4,118z M277.2,155.8c0,3.2-2.6,5.8-5.8,5.8h-18.2c-2.9,0-5.3,2-5.9,4.8c-2.7,13.5-7.9,26.2-15.6,37.6
			c-1.6,2.4-1.3,5.6,0.7,7.6l12.9,12.9c1.1,1.1,1.7,2.5,1.7,4.1c0,1.5-0.6,3-1.7,4.1l-14,14c-1.1,1.1-2.5,1.7-4.1,1.7
			s-3-0.6-4.1-1.7l-12.9-12.9c-2-2-5.2-2.3-7.6-0.7c-11.5,7.7-24.1,12.9-37.6,15.6c-2.8,0.6-4.8,3-4.8,5.9v18.2
			c0,3.2-2.6,5.8-5.8,5.8h-19.8c-3.2,0-5.8-2.6-5.8-5.8v-18.2c0-2.9-2-5.3-4.8-5.9c-13.5-2.7-26.2-7.9-37.6-15.6c-1-0.7-2.2-1-3.3-1
			c-1.5,0-3.1,0.6-4.2,1.8L66,246.8c-1.1,1.1-2.5,1.7-4.1,1.7c-1.5,0-3-0.6-4.1-1.7l-14-14c-1.1-1.1-1.7-2.5-1.7-4.1
			c0-1.5,0.6-3,1.7-4.1l12.9-12.9c2-2,2.3-5.2,0.7-7.6c-7.7-11.5-12.9-24.1-15.6-37.6c-0.6-2.8-3-4.8-5.9-4.8H17.8
			c-3.2,0-5.8-2.6-5.8-5.8V136h0.1c0-3.2,2.6-5.8,5.8-5.8h18.2c2.9,0,5.3-2,5.9-4.8c2.7-13.5,7.9-26.2,15.6-37.6
			c1.6-2.4,1.3-5.6-0.7-7.6l-13-12.9c-1.1-1.1-1.7-2.5-1.7-4.1c0-1.5,0.6-3,1.7-4.1l14-14c1.1-1.1,2.5-1.7,4.1-1.7
			c1.5,0,3,0.6,4.1,1.7L79,58c2,2,5.2,2.3,7.6,0.7c11.5-7.7,24.1-12.9,37.6-15.6c2.8-0.6,4.8-3,4.8-5.9V19c0-3.2,2.6-5.8,5.8-5.8
			h19.8c3.2,0,5.8,2.6,5.8,5.8v18.3c0,2.9,2,5.3,4.8,5.9c13.5,2.7,26.2,7.9,37.6,15.6c2.4,1.6,5.6,1.3,7.6-0.7l12.9-12.9
			c1.1-1.1,2.5-1.7,4.1-1.7s3,0.6,4.1,1.7l14,14c1.1,1.1,1.7,2.5,1.7,4.1c0,1.5-0.6,3-1.7,4.1l-13.1,12.8c-2,2-2.3,5.2-0.7,7.6
			c7.7,11.5,12.9,24.1,15.6,37.6c0.6,2.8,3,4.8,5.9,4.8h18.2c3.2,0,5.8,2.6,5.8,5.8V155.8z"/>
	</g>
</g>
</svg>
