<?xml version="1.0" encoding="utf-8"?>
<!-- Generator: Adobe Illustrator 25.4.1, SVG Export Plug-In . SVG Version: 6.00 Build 0)  -->
<svg version="1.1" id="Layer_1" xmlns="http://www.w3.org/2000/svg" xmlns:xlink="http://www.w3.org/1999/xlink" x="0px" y="0px"
	 viewBox="0 0 512 512" style="enable-background:new 0 0 512 512;" xml:space="preserve">
<style type="text/css">
	.st0{fill:#2B4EFF;stroke:#FFFFFF;stroke-width:6;stroke-miterlimit:10;}
</style>
<g>
	<path class="st0" d="M304.2,425.8h-96.4c-8.3,0-15,6.7-15,15s6.7,15,15,15h96.4c8.3,0,15-6.7,15-15S312.5,425.8,304.2,425.8z"/>
	<path class="st0" d="M298.2,333.2c3.1-6.3,4.9-13.4,4.9-21c0-26-21.1-47.1-47.1-47.1c-7.5,0-14.7,1.8-21,4.9l-70.7-70.7
		c-5.9-5.9-15.4-5.9-21.2,0c-5.9,5.9-5.9,15.4,0,21.2l70.7,70.7c-3.1,6.3-4.9,13.4-4.9,21c0,26,21.1,47.1,47.1,47.1
		c7.5,0,14.7-1.8,21-4.9l16.6,16.6c5.9,5.9,15.4,5.9,21.2,0c5.9-5.9,5.9-15.4,0-21.2L298.2,333.2z M256,329.3
		c-9.4,0-17.1-7.7-17.1-17.1s7.7-17.1,17.1-17.1c9.4,0,17.1,7.7,17.1,17.1S265.4,329.3,256,329.3z"/>
	<path class="st0" d="M256,56.2c-141.2,0-256,114.8-256,256c0,45,11.9,89.3,34.3,128c4.1,7.2,13.3,9.6,20.5,5.5
		c0,0,41.8-24.1,41.8-24.1c7.2-4.1,9.6-13.3,5.5-20.5c-4.1-7.2-13.3-9.6-20.5-5.5L53.2,412c-13-26.4-20.7-55.3-22.7-84.8h32.7
		c8.3,0,15-6.7,15-15s-6.7-15-15-15H30.5c2-30.2,10-58.9,22.7-84.7l28.3,16.3c7.2,4.1,16.3,1.7,20.5-5.5c4.1-7.2,1.7-16.3-5.5-20.5
		l-28.3-16.3c16.4-24.5,37.5-45.6,62-62l16.3,28.3c4.1,7.2,13.3,9.6,20.5,5.5c7.2-4.1,9.6-13.3,5.5-20.5l-16.3-28.3
		c25.9-12.8,54.5-20.7,84.7-22.7v32.7c0,8.3,6.7,15,15,15s15-6.7,15-15V86.7c30.2,2,58.9,10,84.7,22.7l-16.3,28.3
		c-4.1,7.2-1.7,16.3,5.5,20.5c7.2,4.1,16.3,1.7,20.5-5.5l16.3-28.3c24.5,16.4,45.6,37.5,62,62l-28.3,16.3
		c-7.2,4.1-9.6,13.3-5.5,20.5c4.1,7.2,13.3,9.6,20.5,5.5l28.3-16.3c12.8,25.9,20.7,54.5,22.7,84.7h-32.7c-8.3,0-15,6.7-15,15
		s6.7,15,15,15h32.7c-2,29.5-9.7,58.3-22.7,84.8l-28.3-16.4c-7.2-4.1-16.3-1.7-20.5,5.5c-4.1,7.2-1.7,16.3,5.5,20.5
		c0,0,41.7,24.1,41.8,24.1c7.2,4.1,16.3,1.7,20.5-5.5c22.4-38.8,34.3-83,34.3-128C512,171.1,397.2,56.2,256,56.2L256,56.2z"/>
</g>
</svg>
