<?xml version="1.0" encoding="utf-8"?>
<!-- Generator: Adobe Illustrator 25.4.1, SVG Export Plug-In . SVG Version: 6.00 Build 0)  -->
<svg version="1.1" id="Capa_1" xmlns="http://www.w3.org/2000/svg" xmlns:xlink="http://www.w3.org/1999/xlink" x="0px" y="0px"
	 viewBox="0 0 512 512" style="enable-background:new 0 0 512 512;" xml:space="preserve">
<style type="text/css">
	.st0{fill:#2B4EFF;stroke:#2B4EFF;stroke-width:2;stroke-miterlimit:10;}
</style>
<g>
	<g>
		<path class="st0" d="M181.3,0H10.7C4.8,0,0,4.8,0,10.7s4.8,10.7,10.7,10.7h170.7c5.9,0,10.7-4.8,10.7-10.7S187.2,0,181.3,0z"/>
	</g>
</g>
<g>
	<g>
		<path class="st0" d="M181.3,490.7H10.7c-5.9,0-10.7,4.8-10.7,10.7S4.8,512,10.7,512h170.7c5.9,0,10.7-4.8,10.7-10.7
			C192,495.4,187.2,490.7,181.3,490.7z"/>
	</g>
</g>
<g>
	<g>
		<path class="st0" d="M96,0c-5.9,0-10.7,4.8-10.7,10.7v490.7c0,5.9,4.8,10.7,10.7,10.7s10.7-4.8,10.7-10.7V10.7
			C106.7,4.8,101.9,0,96,0z"/>
	</g>
</g>
<g>
	<g>
		<path class="st0" d="M511,411.5l-149.3-320c-3.5-7.5-15.8-7.5-19.3,0L193,411.5c-2.5,5.3-0.2,11.7,5.2,14.2s11.7,0.2,14.2-5.2
			L352,121.2l139.6,299.3c1.8,3.9,5.7,6.2,9.7,6.2c1.5,0,3.1-0.3,4.5-1C511.2,423.2,513.5,416.8,511,411.5z"/>
	</g>
</g>
<g>
	<g>
		<path class="st0" d="M437.3,277.3H266.7c-5.9,0-10.7,4.8-10.7,10.7s4.8,10.7,10.7,10.7h170.7c5.9,0,10.7-4.8,10.7-10.7
			S443.2,277.3,437.3,277.3z"/>
	</g>
</g>
</svg>
